<svg xmlns="http://www.w3.org/2000/svg" xmlns:xlink="http://www.w3.org/1999/xlink" version="1.1" x="0px" y="0px" viewBox="0 0 64 80" enable-background="new 0 0 64 64" xml:space="preserve"><g><path d="M58.547,8.013l2.54-0.483c0.782-0.149,0.782-1.269,0-1.418L33.17,0.795c-0.773-0.147-1.568-0.147-2.34,0L2.913,6.112   c-0.782,0.149-0.782,1.269,0,1.418l13.429,2.559l-1.153,6.924l-0.149,0.89c-0.013,0.077-0.019,0.153-0.021,0.23   c0,0.009,0,0.017,0,0.026c0,0.075,0.006,0.147,0.015,0.22c0.002,0.007,0.004,0.017,0.004,0.024   c0.034,0.205,0.105,0.398,0.211,0.571c0.004,0.004,0.006,0.009,0.007,0.013c0.028,0.043,0.056,0.086,0.088,0.125   c0.002,0.004,0.004,0.007,0.007,0.009c0.032,0.043,0.067,0.082,0.103,0.121c0.011,0.009,0.022,0.021,0.034,0.03   c0.026,0.026,0.052,0.052,0.08,0.077c0.015,0.013,0.032,0.024,0.049,0.037c0.026,0.021,0.052,0.039,0.078,0.058   c0.017,0.013,0.035,0.024,0.052,0.035c0.028,0.017,0.058,0.034,0.088,0.05c0.017,0.009,0.035,0.019,0.054,0.028   c0.032,0.017,0.065,0.032,0.099,0.045c0.017,0.007,0.034,0.015,0.05,0.021c0.045,0.017,0.09,0.03,0.136,0.043   c0.007,0.002,0.013,0.006,0.021,0.007l4.175,1.06l2.758,0.7l0.9,0.23l0.442,0.112l6.366,1.618c0.17,0.043,0.34,0.075,0.513,0.099   c0.597,0.082,1.207,0.05,1.795-0.099l10.094-2.564l4.548-1.155c0.453-0.118,0.816-0.424,1.01-0.817   c0.146-0.286,0.202-0.616,0.146-0.952l-0.394-2.361l-0.396-2.368l-0.515-3.083l7.786-1.484L58.547,8.013z"/><path d="M7.162,38.457c0,0.576,0.467,1.043,1.043,1.043h47.956v-2.085H8.205C7.629,37.415,7.162,37.882,7.162,38.457z"/><g><path d="M56.161,33.245H8.205c-0.576,0-1.043,0.467-1.043,1.043c0,0.576,0.467,1.042,1.043,1.042h47.956V33.245z"/><path d="M56.838,50.903c0-0.576-0.467-1.043-1.043-1.043H7.839v2.085h47.956C56.371,51.945,56.838,51.479,56.838,50.903z"/><path d="M7.839,56.116h47.956c0.576,0,1.043-0.467,1.043-1.043c0-0.575-0.467-1.042-1.043-1.042H7.839V56.116z"/></g><path d="M56.809,42.465H6.768c-0.024,0-0.046,0.003-0.07,0.004c-0.912-0.222-1.592-1.044-1.592-2.023v-8.341   c0-1.15,0.936-2.084,2.085-2.084h50.041c1.152,0,2.085-0.934,2.085-2.085c0-1.152-0.933-2.085-2.085-2.085H7.191   c-3.449,0-6.255,2.806-6.255,6.255v8.341c0,3.449,2.805,6.255,6.255,6.255h50.041c0.024,0,0.047-0.003,0.07-0.004   c0.912,0.222,1.592,1.044,1.592,2.023v8.341c0,1.149-0.936,2.084-2.085,2.084H6.768c-1.152,0-2.085,0.934-2.085,2.085   c0,1.152,0.933,2.085,2.085,2.085h50.041c3.449,0,6.255-2.806,6.255-6.255V48.72C63.064,45.271,60.259,42.465,56.809,42.465z"/></g><text x="0" y="79" fill="#000000" font-size="5px" font-weight="bold" font-family="'Helvetica Neue', Helvetica, Arial-Unicode, Arial, Sans-serif">Created by Arafat Uddin</text><text x="0" y="84" fill="#000000" font-size="5px" font-weight="bold" font-family="'Helvetica Neue', Helvetica, Arial-Unicode, Arial, Sans-serif">from the Noun Project</text></svg>